<svg xmlns="http://www.w3.org/2000/svg" width="200" height="70" viewBox="0 0 99 35" fill="none">
<path d="M10.928 27.2881C9.76783 27.2881 8.67799 27.0737 7.65847 26.645C6.63889 26.2047 5.74243 25.6081 4.969 24.8549C4.20728 24.0902 3.60376 23.2038 3.15845 22.1958C2.72485 21.1878 2.50806 20.1103 2.50806 18.9633V13.4366H0.170166V8.70934H2.50806V1.27094H7.28929V8.70934H14.5666V13.4366H7.28929V18.9633C7.28929 19.4615 7.38307 19.9308 7.57057 20.371C7.75807 20.7997 8.01589 21.1763 8.34397 21.5007C8.67211 21.8251 9.05881 22.0858 9.50413 22.2828C9.94945 22.4681 10.4241 22.5608 10.928 22.5608H14.5666V27.2881H10.928ZM41.0393 20.5622C41.0393 21.5354 40.8518 22.4566 40.4768 23.3255C40.1018 24.1829 39.5862 24.9302 38.9299 25.5675C38.2854 26.2047 37.5237 26.7087 36.6448 27.0795C35.7776 27.4502 34.846 27.6356 33.8499 27.6356C32.9592 27.6356 32.1037 27.485 31.2835 27.1838C30.4632 26.871 29.719 26.4191 29.0511 25.8282C28.3948 26.4191 27.6565 26.871 26.8362 27.1838C26.0276 27.485 25.1721 27.6356 24.2698 27.6356C23.2737 27.6356 22.342 27.4502 21.4749 27.0795C20.6077 26.7087 19.846 26.2047 19.1897 25.5675C18.5452 24.9302 18.0354 24.1829 17.6604 23.3255C17.2854 22.4566 17.0979 21.5354 17.0979 20.5622V8.70934H21.8967V20.5622C21.8967 20.8866 21.9553 21.1937 22.0725 21.4833C22.2014 21.7614 22.3713 22.0105 22.5823 22.2306C22.8049 22.4392 23.0569 22.6072 23.3382 22.7346C23.6311 22.8505 23.9416 22.9084 24.2698 22.9084C24.5979 22.9084 24.9085 22.8505 25.2014 22.7346C25.4944 22.6072 25.7522 22.4392 25.9749 22.2306C26.1975 22.0105 26.3674 21.7614 26.4846 21.4833C26.6136 21.1937 26.678 20.8866 26.678 20.5622V8.70934H31.4592V20.5622C31.4592 20.8866 31.5237 21.1937 31.6526 21.4833C31.7815 21.7614 31.9514 22.0105 32.1624 22.2306C32.385 22.4392 32.637 22.6072 32.9182 22.7346C33.2112 22.8505 33.5217 22.9084 33.8499 22.9084C34.178 22.9084 34.4886 22.8505 34.7815 22.7346C35.0745 22.6072 35.3264 22.4392 35.5374 22.2306C35.76 22.0105 35.9358 21.7614 36.0647 21.4833C36.1936 21.1937 36.2581 20.8866 36.2581 20.5622V8.70934H41.0393V20.5622ZM50.1799 3.61717C50.1799 4.05745 50.092 4.46876 49.9162 4.85111C49.7522 5.23347 49.5237 5.56947 49.2307 5.85912C48.9378 6.1372 48.592 6.36315 48.1936 6.53691C47.8069 6.69915 47.3909 6.78025 46.9456 6.78025C46.5003 6.78025 46.0784 6.69915 45.6799 6.53691C45.2932 6.36315 44.9534 6.1372 44.6604 5.85912C44.3791 5.56947 44.1507 5.23347 43.9748 4.85111C43.8108 4.46876 43.7287 4.05745 43.7287 3.61717C43.7287 3.18848 43.8108 2.78296 43.9748 2.40061C44.1507 2.00667 44.3791 1.67067 44.6604 1.3926C44.9534 1.10293 45.2932 0.877005 45.6799 0.714795C46.0784 0.540999 46.5003 0.454102 46.9456 0.454102C47.3909 0.454102 47.8069 0.540999 48.1936 0.714795C48.592 0.877005 48.9378 1.10293 49.2307 1.3926C49.5237 1.67067 49.7522 2.00667 49.9162 2.40061C50.092 2.78296 50.1799 3.18848 50.1799 3.61717ZM49.3537 27.2881H44.5198V8.67458H49.3537V27.2881ZM66.4224 17.8162C66.4224 17.1674 66.2934 16.5417 66.0354 15.9392C65.7894 15.3252 65.4498 14.7864 65.016 14.3229C64.5822 13.8479 64.0728 13.4714 63.4866 13.1933C62.9124 12.9036 62.2974 12.7588 61.641 12.7588C60.9846 12.7588 60.3636 12.8689 59.7776 13.089C59.2034 13.3091 58.6995 13.6335 58.2659 14.0623C57.844 14.4909 57.51 15.0239 57.2639 15.6612C57.0178 16.2868 56.8948 17.0052 56.8948 17.8162C56.8948 18.5925 57.0178 19.2935 57.2639 19.9191C57.51 20.5332 57.844 21.0604 58.2659 21.5007C58.6995 21.9409 59.2034 22.2828 59.7776 22.5261C60.3636 22.7578 60.9846 22.8737 61.641 22.8737C62.2974 22.8737 62.9124 22.7346 63.4866 22.4566C64.0728 22.1669 64.5822 21.7903 65.016 21.3269C65.4498 20.8518 65.7894 20.3131 66.0354 19.7106C66.2934 19.0965 66.4224 18.4651 66.4224 17.8162ZM71.256 24.9418C71.256 26.2511 71.004 27.4792 70.5 28.6263C69.9966 29.7733 69.3048 30.7755 68.4258 31.6329C67.5588 32.4903 66.5394 33.1681 65.3676 33.6664C64.2072 34.1645 62.9652 34.4136 61.641 34.4136L59.2327 34.3789V29.6343L61.6056 29.6691C62.3556 29.6691 62.9946 29.5706 63.522 29.3736C64.0494 29.1882 64.4946 28.9275 64.8576 28.5915C65.2212 28.2671 65.5079 27.8905 65.7192 27.4619C65.9417 27.0331 66.1176 26.5813 66.2466 26.1062C66.0588 26.4075 65.7894 26.6566 65.4378 26.8536C65.0862 27.039 64.6938 27.1896 64.26 27.3054C63.8382 27.4329 63.393 27.5198 62.9244 27.5662C62.4672 27.6125 62.0394 27.6356 61.641 27.6356C60.3168 27.6356 59.0686 27.4097 57.8967 26.9579C56.7366 26.5059 55.717 25.863 54.8382 25.0287C53.971 24.1829 53.2854 23.1517 52.7815 21.9352C52.2776 20.7186 52.0257 19.3456 52.0257 17.8162C52.0257 16.4143 52.2776 15.1108 52.7815 13.9058C53.2854 12.7009 53.971 11.6581 54.8382 10.7775C55.717 9.89697 56.7366 9.20759 57.8967 8.70934C59.0686 8.21115 60.3168 7.96206 61.641 7.96206C62.25 7.96206 62.8536 8.03734 63.4512 8.18796C64.0494 8.33858 64.629 8.54715 65.1918 8.81363C65.754 9.0801 66.2874 9.39297 66.7914 9.75216C67.3068 10.1113 67.7874 10.4994 68.2326 10.9165L70.0962 8.70934H71.256V24.9418ZM82.4184 22.7346C82.6056 22.7926 82.7934 22.8331 82.9806 22.8563C83.1684 22.8678 83.3556 22.8737 83.5434 22.8737C84.012 22.8737 84.4632 22.8099 84.8969 22.6825C85.3302 22.555 85.7346 22.3755 86.1096 22.1437C86.4966 21.9004 86.8362 21.6108 87.129 21.2748C87.4338 20.9271 87.6798 20.5448 87.8676 20.1277L91.3829 23.621C90.9378 24.2466 90.4224 24.8086 89.8362 25.3068C89.262 25.805 88.6349 26.2279 87.9552 26.5755C87.2874 26.9231 86.5782 27.1838 85.8282 27.3576C85.0902 27.543 84.3282 27.6356 83.5434 27.6356C82.2192 27.6356 80.9712 27.3923 79.7993 26.9057C78.6389 26.4191 77.6196 25.7413 76.7406 24.8723C75.8736 24.0033 75.1878 22.9721 74.6838 21.7788C74.1798 20.5737 73.9277 19.2529 73.9277 17.8162C73.9277 16.3447 74.1798 15.0007 74.6838 13.7842C75.1878 12.5676 75.8736 11.5306 76.7406 10.6733C77.6196 9.81588 78.6389 9.14963 79.7993 8.67458C80.9712 8.19959 82.2192 7.96206 83.5434 7.96206C84.3282 7.96206 85.0962 8.05472 85.8462 8.2401C86.5962 8.42548 87.3047 8.69196 87.9732 9.03959C88.6524 9.38715 89.2854 9.81587 89.8716 10.3256C90.4572 10.8239 90.9732 11.3858 91.4184 12.0114L82.4184 22.7346ZM84.879 12.95C84.6563 12.8689 84.4338 12.8167 84.2112 12.7935C84 12.7703 83.7774 12.7588 83.5434 12.7588C82.887 12.7588 82.266 12.8804 81.6797 13.1237C81.1056 13.3555 80.6016 13.6915 80.1684 14.1318C79.7466 14.5721 79.4124 15.105 79.1664 15.7307C78.9204 16.3447 78.7973 17.0399 78.7973 17.8162C78.7973 17.99 78.8028 18.187 78.8148 18.4071C78.8382 18.6273 78.8676 18.8532 78.9024 19.0849C78.9498 19.3051 79.002 19.5194 79.0608 19.728C79.1196 19.9365 79.1958 20.1219 79.2894 20.2841L84.879 12.95ZM98.6778 27.2881H93.8442V1.27094H98.6778V27.2881Z" fill="#FF5043"/>
</svg>
